<svg width="70" height="70" fill="none" xmlns="http://www.w3.org/2000/svg"><path d="M33.172 53.974c-10.843 0-19.663-8.823-19.663-19.664 0-10.845 8.82-19.665 19.663-19.665 10.844 0 19.666 8.82 19.666 19.665 0 4.099-1.262 7.907-3.416 11.06l3.916 3.774a25.014 25.014 0 004.846-14.835c0-13.879-11.25-25.13-25.13-25.13-13.879 0-25.13 11.251-25.13 25.13 0 13.88 11.251 25.13 25.13 25.13a25.038 25.038 0 0016.95-6.578l-4.217-3.48a19.575 19.575 0 01-12.614 4.593z" fill="#FB6C4D"/><path d="M45.424 41.52a14.169 14.169 0 001.959-7.21c0-7.864-6.375-14.239-14.237-14.239-7.864 0-14.239 6.375-14.239 14.24 0 7.862 6.375 14.236 14.239 14.236 3.12 0 6.005-1.004 8.351-2.706l-5.065-4.18a8.012 8.012 0 01-11.196-7.352 8.012 8.012 0 0116.025 0c0 .961-.173 1.88-.484 2.734l4.647 4.477z" fill="#FB6C4D"/><path d="M62.03 55.395l-4.457-4.322c.05-.075-.32-.207-.684-.22l-3.586.534-.227-.217-14.331-13.807.033-.037a.25.25 0 00-.02-.352l-.004-.004a.25.25 0 00-.353.02l-.036.041a1.585 1.585 0 00-1.747-.013L33.21 34.39c-.029-.022-.088 0-.133.05l-.002.002c-.045.051-.06.112-.035.138l3.007 3.093a1.586 1.586 0 00.229 1.702l-.037.04a.25.25 0 00.02.353l.004.004a.25.25 0 00.352-.02l.034-.037 15.35 12.665.574.474-.346-.285-.12 3.563c-.01.29.116.57.341.754l4.762 3.903c.094.077.235.01.234-.112l-.036-3.832 1.833 1.512a.44.44 0 00.511.035c.013-.008.027-.014.04-.023l.01-.011a.426.426 0 00.053-.048v-.001l.007-.007a.438.438 0 00.077-.125c.003-.008.008-.015.01-.023l.001-.003a.446.446 0 00-.11-.465l-1.153-1.109-.547-.528 3.803-.4a.148.148 0 00.088-.253z" fill="#FB6C4D"/></svg>