<svg width="70" height="70" fill="none" xmlns="http://www.w3.org/2000/svg"><path d="M35 60.667v4.666c5.465 0 9.805-1.99 13.12-4.666H35z" fill="#FB6C4D"/><path d="M11.667 37.333V42c0 5.833 4.666 7 4.666 7S21 63 35 63" stroke="#FB6C4D" stroke-width="2" stroke-miterlimit="10" stroke-linecap="round"/><path d="M60.667 39.667h-7c0-14.56-7-21-7-21-7 16.333-30.334 4.666-30.334 21h-7v-9.334C9.333 14 23.333 4.667 35 4.667c9.333 0 11.667 4.666 11.667 4.666 9.333 0 14 11.667 14 21v9.334zM36.167 49h-2.334a3.501 3.501 0 00-3.5 3.5c0 1.932 1.568 3.5 3.5 3.5h2.334c1.932 0 3.5-1.568 3.5-3.5s-1.568-3.5-3.5-3.5z" fill="#FB6C4D"/><path d="M37.333 53.667H49a9.334 9.334 0 009.333-9.334v-7" stroke="#FB6C4D" stroke-width="2" stroke-miterlimit="10" stroke-linecap="round"/><path d="M58.333 46.667h-4.666V35h4.666A4.665 4.665 0 0163 39.667V42a4.665 4.665 0 01-4.667 4.667z" fill="#FB6C4D"/></svg>