<svg width="70" height="70" fill="none" xmlns="http://www.w3.org/2000/svg"><path d="M41.058 8.75c-2.231 0-3.87 2.06-3.87 4.375 0 1.277.51 2.462 1.332 3.281-.82.82-1.333 2.005-1.333 3.282 0 1.277.51 2.462 1.334 3.28-.822.82-1.334 2.006-1.334 3.282 0 1.285.519 2.475 1.35 3.294-.325.322-.59.694-.803 1.11A16.242 16.242 0 0027.143 35H12.62c-2.232 0-3.871 2.06-3.871 4.375 0 1.278.51 2.462 1.333 3.281-.821.82-1.333 2.005-1.333 3.282 0 1.277.51 2.462 1.333 3.28-.821.82-1.333 2.006-1.333 3.282 0 1.278.51 2.462 1.333 3.281-.821.82-1.333 2.005-1.333 3.282 0 2.314 1.639 4.374 3.87 4.374h24.662c.092 0 .184-.01.273-.034.228.01.453.035.684.035.32 0 .633-.03.948-.047.105.031.215.047.325.047h20.055c2.231 0 3.87-2.06 3.87-4.376 0-1.276-.511-2.462-1.332-3.28.822-.82 1.333-2.004 1.333-3.282 0-1.276-.512-2.462-1.334-3.281.823-.82 1.334-2.004 1.334-3.282 0-1.276-.512-2.462-1.334-3.28.823-.82 1.334-2.004 1.334-3.282 0-1.276-.512-2.462-1.334-3.281.823-.82 1.334-2.004 1.334-3.282 0-1.276-.512-2.462-1.334-3.28.823-.82 1.334-2.005 1.334-3.282 0-1.276-.512-2.462-1.334-3.281.823-.82 1.334-2.004 1.334-3.282 0-1.276-.512-2.462-1.334-3.28.823-.82 1.334-2.005 1.334-3.282 0-2.314-1.64-4.375-3.871-4.375H41.058zm0 2.188h18.509c.844 0 1.683.866 1.683 2.187 0 1.321-.839 2.188-1.683 2.188H41.058c-.844 0-1.683-.867-1.683-2.188 0-1.321.839-2.188 1.683-2.188zm0 6.562h18.509c.844 0 1.683.866 1.683 2.188 0 1.32-.839 2.187-1.683 2.187H41.058c-.844 0-1.683-.866-1.683-2.188 0-1.32.839-2.187 1.683-2.187zm0 6.563h18.509c.844 0 1.683.866 1.683 2.187 0 1.321-.839 2.188-1.683 2.188H41.058c-.844 0-1.683-.867-1.683-2.188 0-1.321.839-2.188 1.683-2.188zm0 6.562h18.509c.844 0 1.683.866 1.683 2.188 0 1.32-.839 2.187-1.683 2.187H49.326a16.244 16.244 0 00-8.887-4.204 1.35 1.35 0 01.62-.171zm-2.82 2.192c7.88 0 14.262 6.36 14.262 14.214 0 7.859-6.382 14.219-14.261 14.219-7.882 0-14.176-6.352-14.176-14.219 0-7.862 6.294-14.214 14.176-14.214zm-25.617 4.37h12.552a16.364 16.364 0 00-2.345 4.376H12.62c-.845 0-1.684-.867-1.684-2.188 0-1.321.84-2.188 1.684-2.188zm38.674 0h8.272c.844 0 1.683.867 1.683 2.188 0 1.321-.839 2.188-1.683 2.188h-5.918a16.422 16.422 0 00-2.354-4.376zM32.8 39.38v17.5h2.187v-5.708c.902.82 2.022 1.333 3.29 1.333 3.157 0 5.473-3.068 5.473-6.562s-2.316-6.563-5.473-6.563c-1.268 0-2.388.51-3.29 1.329V39.38H32.8zm5.477 2.188c1.681 0 3.285 1.828 3.285 4.375 0 2.547-1.604 4.375-3.285 4.375s-3.29-1.828-3.29-4.375c0-2.547 1.609-4.375 3.29-4.375zM12.621 43.75h9.583a16.535 16.535 0 00-.329 3.281c0 .37.032.73.055 1.094h-9.31c-.843 0-1.682-.866-1.682-2.188 0-1.32.838-2.187 1.683-2.187zm41.635 0h5.31c.845 0 1.684.867 1.684 2.188 0 1.32-.839 2.187-1.683 2.187h-4.935c.024-.363.056-.724.056-1.094 0-.146-.03-.292-.086-.427h-.004a16.5 16.5 0 00-.342-2.854zm-41.635 6.563h9.583a16.325 16.325 0 001.568 4.374H12.621c-.845 0-1.684-.866-1.684-2.187 0-1.321.84-2.188 1.684-2.188zm41.737 0h5.209c.844 0 1.683.866 1.683 2.187 0 1.321-.839 2.188-1.683 2.188h-6.794a16.25 16.25 0 001.585-4.376zm-10.608.038v2.188h2.17V50.35h-2.17zm-18.632 6.447A16.419 16.419 0 0030.1 61.25H12.62c-.843 0-1.682-.866-1.682-2.188 0-1.32.838-2.187 1.683-2.187h12.082c.142.002.283-.025.415-.077zm26.246.077h8.203c.844 0 1.683.867 1.683 2.188 0 1.32-.839 2.187-1.683 2.187H46.403a16.542 16.542 0 004.96-4.375z" fill="#FB6C4D"/></svg>