<svg width="16" height="16" fill="none" xmlns="http://www.w3.org/2000/svg"><path d="M15.428 5.777c0 .13-.077.274-.232.428l-3.24 3.161.767 4.464c.006.042.009.101.009.179 0 .125-.031.23-.094.317a.315.315 0 01-.272.13.723.723 0 01-.357-.108l-4.01-2.107-4.008 2.107a.76.76 0 01-.357.107c-.125 0-.219-.043-.281-.13a.526.526 0 01-.094-.316c0-.036.006-.095.018-.179l.768-4.464-3.25-3.16c-.15-.161-.224-.304-.224-.43 0-.22.167-.356.5-.41l4.482-.652L7.563.652C7.674.408 7.82.286 8 .286c.178 0 .324.122.437.366l2.01 4.062 4.481.652c.334.054.5.19.5.41z" fill="#FB6C4D"/></svg>