<svg width="48" height="48" fill="none" xmlns="http://www.w3.org/2000/svg"><g clip-path="url(#clip0)"><path d="M36.708 31.115C38.141 29.703 39 27.932 39 26c0-4.167-3.984-7.61-9.177-8.224-1.64-3-5.495-5.11-9.99-5.11C13.85 12.667 9 16.397 9 21c0 1.927.86 3.698 2.292 5.115a13.637 13.637 0 01-1.964 2.859 1.2 1.2 0 00-.229 1.302 1.2 1.2 0 001.104.73c2.787 0 5.037-1.053 6.521-2.021.48.109.974.192 1.48.255 1.635 2.99 5.473 5.093 9.963 5.093 1.083 0 2.125-.125 3.114-.354 1.485.964 3.73 2.021 6.521 2.021a1.206 1.206 0 00.875-2.031 13.275 13.275 0 01-1.969-2.854zM16.25 26.307l-.89.579c-.735.474-1.485.849-2.245 1.114.14-.245.28-.505.416-.77l.808-1.62-1.292-1.277C12.344 23.636 11.5 22.495 11.5 21c0-3.161 3.818-5.833 8.333-5.833 4.516 0 8.334 2.672 8.334 5.833 0 3.162-3.818 5.833-8.334 5.833-.859 0-1.718-.098-2.552-.291l-1.03-.235zm18.703 3.026l-1.286 1.271.807 1.62c.136.266.276.526.417.77-.76-.265-1.51-.64-2.245-1.114l-.89-.578-1.037.24c-.834.192-1.693.291-2.552.291-2.813 0-5.323-1.046-6.839-2.588 5.276-.563 9.339-4.031 9.339-8.245 0-.177-.021-.349-.037-.52 3.354.755 5.87 2.958 5.87 5.52 0 1.495-.844 2.636-1.547 3.333z" fill="#FB6C4D"/></g><circle cx="24" cy="24" r="23" stroke="#FB6C4D" stroke-width="2"/><defs><clipPath id="clip0"><path fill="#fff" d="M9 11h30v26.667H9z"/></clipPath></defs></svg>