<svg width="48" height="48" fill="none" xmlns="http://www.w3.org/2000/svg"><circle cx="24" cy="24" r="23" stroke="#FB6C4D" stroke-width="2"/><path d="M19.087 9.2a.6.6 0 00-.487.6v4.8c0 .33.27.6.6.6h3V26H15c-.194 0-.375.1-.488.262l-4.2 6a.589.589 0 00-.112.338V35c0 .33.267.6.6.6h.6v.6h1.2v-.6h14.175c-.22-.38-.415-.78-.563-1.2H11.4v-1.2h14.513A7.232 7.232 0 0125.8 32H11.944l3.375-4.8h12.337c.408-.455.858-.86 1.369-1.2H25.8V15.2h3c.33 0 .6-.27.6-.6V9.8c0-.33-.27-.6-.6-.6h-9.712zm.713 1.2h8.4V14h-8.4v-3.6zm6.6 1.8v1.2h1.2v-1.2h-1.2zm-3 3h1.2V26h-1.2V15.2zM33 26c-3.307 0-6 2.693-6 6s2.693 6 6 6 6-2.693 6-6-2.693-6-6-6zm0 1.2c2.658 0 4.8 2.142 4.8 4.8s-2.142 4.8-4.8 4.8a4.791 4.791 0 01-4.8-4.8c0-2.658 2.142-4.8 4.8-4.8zm2.55 2.006l-3.244 3.769-1.95-1.463-.712.975 2.85 2.138.356-.431 3.6-4.2-.9-.788z" fill="#FB6C4D"/></svg>