<svg width="48" height="48" fill="none" xmlns="http://www.w3.org/2000/svg"><circle cx="24" cy="24" r="23" stroke="#FB6C4D" stroke-width="2"/><g clip-path="url(#clip0)"><path d="M38.4 25.772v-3.6l-4.285-.7a10.416 10.416 0 00-1.177-2.842l2.497-3.56-2.545-2.544-3.514 2.526a10.333 10.333 0 00-2.858-1.189l-.747-4.264h-3.6l-.693 4.25c-1.023.251-1.988.65-2.867 1.178l-3.503-2.503-2.546 2.544 2.464 3.525a10.458 10.458 0 00-1.195 2.875l-4.231.704v3.6l4.226.75c.255 1.026.661 1.99 1.196 2.874l-2.498 3.494 2.544 2.547 3.529-2.472c.88.53 1.844.931 2.866 1.184l.708 4.252h3.6l.757-4.263a10.406 10.406 0 002.85-1.194l3.554 2.493 2.545-2.547-2.536-3.522c.525-.873.923-1.829 1.174-2.843l4.285-.753zM24 28.8a4.8 4.8 0 110-9.6 4.8 4.8 0 010 9.6z" stroke="#FB6C4D" stroke-width="2" stroke-miterlimit="10" stroke-linecap="round"/></g><defs><clipPath id="clip0"><path fill="#fff" d="M9 9h30v30H9z"/></clipPath></defs></svg>