<svg width="48" height="48" fill="none" xmlns="http://www.w3.org/2000/svg"><path d="M16 31V13h18v18a4 4 0 01-4 4" stroke="#FB6C4D" stroke-width="2" stroke-miterlimit="10" stroke-linecap="round" stroke-linejoin="round"/><path d="M26 31H13a4 4 0 004 4h13a4 4 0 01-4-4z" stroke="#FB6C4D" stroke-width="2" stroke-miterlimit="10" stroke-linecap="round" stroke-linejoin="round"/><path d="M24 22h6m-10 0h2m2 4h6m-10 0h2m2-8h6m-10 0h2" stroke="#FB6C4D" stroke-width="2" stroke-miterlimit="10" stroke-linejoin="round"/><path d="M26 31H13a4 4 0 004 4h13a4 4 0 01-4-4z" fill="#FB6C4D"/><circle cx="24" cy="24" r="23" stroke="#FB6C4D" stroke-width="2"/></svg>