<svg width="33" height="32" fill="none" xmlns="http://www.w3.org/2000/svg"><g clip-path="url(#clip0)"><path d="M16.998 32c8.837 0 16-7.163 16-16s-7.163-16-16-16c-8.836 0-16 7.163-16 16s7.164 16 16 16z" fill="url(#paint0_linear)"/><path d="M14.065 23.333c-.518 0-.43-.195-.609-.689l-1.524-5.016 11.733-6.961" fill="#C8DAEA"/><path d="M14.065 23.333c.4 0 .577-.183.8-.4l2.133-2.074-2.66-1.605" fill="#A9C9DD"/><path d="M14.337 19.255l6.448 4.764c.736.405 1.267.195 1.45-.684l2.625-12.368c.268-1.077-.41-1.566-1.115-1.247L8.333 15.663c-1.052.422-1.046 1.01-.192 1.27l3.956 1.235 9.156-5.776c.432-.263.829-.122.503.167" fill="url(#paint1_linear)"/></g><defs><linearGradient id="paint0_linear" x1="22.342" y1="5.344" x2="14.342" y2="24" gradientUnits="userSpaceOnUse"><stop stop-color="#37AEE2"/><stop offset="1" stop-color="#1E96C8"/></linearGradient><linearGradient id="paint1_linear" x1="19.004" y1="16.001" x2="21.501" y2="21.69" gradientUnits="userSpaceOnUse"><stop stop-color="#EFF7FC"/><stop offset="1" stop-color="#fff"/></linearGradient><clipPath id="clip0"><path fill="#fff" d="M.998 0h32v32h-32z"/></clipPath></defs></svg>