<svg width="24" height="24" fill="none" xmlns="http://www.w3.org/2000/svg"><g clip-path="url(#clip0)"><path d="M23.49 18.548L18 13.06a3.48 3.48 0 00-4.003-.651L9 7.41V4.5L3 0 0 3l4.5 6h2.911l4.997 4.997c-.638 1.303-.431 2.92.651 4.003l5.49 5.49c.684.683 1.79.683 2.47 0l2.47-2.471a1.75 1.75 0 000-2.47zm-7.941-8.001c1.326 0 2.573.515 3.51 1.453l.91.91a6.637 6.637 0 002.053-1.383 6.741 6.741 0 001.777-6.408.561.561 0 00-.943-.258L19.37 8.348l-3.183-.53-.53-3.182 3.488-3.488a.565.565 0 00-.267-.946 6.752 6.752 0 00-6.403 1.776c-1.336 1.336-1.965 3.099-1.932 4.856l3.849 3.849c.38-.09.773-.136 1.158-.136zm-4.87 3.844L8.02 11.733.877 18.88a2.999 2.999 0 104.242 4.242l5.794-5.793c-.357-.933-.465-1.95-.235-2.94zM3 22.125A1.128 1.128 0 011.875 21c0-.623.502-1.125 1.125-1.125s1.125.502 1.125 1.125c0 .619-.502 1.125-1.125 1.125z" fill="#fff"/></g><defs><clipPath id="clip0"><path fill="#fff" d="M0 0h24v24H0z"/></clipPath></defs></svg>