<svg width="24" height="19" fill="none" xmlns="http://www.w3.org/2000/svg"><path opacity=".4" d="M11.167 9.667H8.5a.5.5 0 00-.5.5v1.666a.5.5 0 00.5.5h2.667a.5.5 0 00.5-.5v-1.666a.5.5 0 00-.5-.5zm-4.334 0H3.167a.5.5 0 00-.5.5v1.666a.5.5 0 00.5.5h3.666a.5.5 0 00.5-.5v-1.666a.5.5 0 00-.5-.5zm8.667 0h-2.667a.5.5 0 00-.5.5v1.666a.5.5 0 00.5.5H15.5a.5.5 0 00.5-.5v-1.666a.5.5 0 00-.5-.5zm5.333 0h-3.666a.5.5 0 00-.5.5v1.666a.5.5 0 00.5.5h3.666a.5.5 0 00.5-.5v-1.666a.5.5 0 00-.5-.5z" fill="#fff"/><path d="M22 .333H2a2 2 0 00-2 2V17a2 2 0 002 2h20a2 2 0 002-2V2.334a2 2 0 00-2-2zM8 10.167a.5.5 0 01.5-.5h2.667a.5.5 0 01.5.5v1.667a.5.5 0 01-.5.5H8.5a.5.5 0 01-.5-.5v-1.667zm-1.333 5.667a.5.5 0 01-.5.5h-3a.5.5 0 01-.5-.5V15.5a.5.5 0 01.5-.5h3a.5.5 0 01.5.5v.334zm.666-4a.5.5 0 01-.5.5H3.167a.5.5 0 01-.5-.5v-1.667a.5.5 0 01.5-.5h3.666a.5.5 0 01.5.5v1.667zm7.334 4a.5.5 0 01-.5.5H8.5a.5.5 0 01-.5-.5V15.5a.5.5 0 01.5-.5h5.667a.5.5 0 01.5.5v.334zm1.333-4a.5.5 0 01-.5.5h-2.667a.5.5 0 01-.5-.5v-1.667a.5.5 0 01.5-.5H15.5a.5.5 0 01.5.5v1.667zm5.333 0a.5.5 0 01-.5.5h-3.666a.5.5 0 01-.5-.5v-1.667a.5.5 0 01.5-.5h3.666a.5.5 0 01.5.5v1.667zm0-5.834a.997.997 0 01-1 1H17a.998.998 0 01-1-1V4a.999.999 0 011-1h3.333a.998.998 0 011 1v2z" fill="#fff"/></svg>