<svg width="30" height="24" fill="none" xmlns="http://www.w3.org/2000/svg"><path d="M29.25 16.5h-.75v-5.067a2.25 2.25 0 00-.66-1.59l-4.684-4.682a2.25 2.25 0 00-1.589-.661H19.5V2.25A2.25 2.25 0 0017.25 0h-12A2.25 2.25 0 003 2.25V4.5H.375A.376.376 0 000 4.875v.75C0 5.831.169 6 .375 6h12.75c.206 0 .375.169.375.375v.75a.376.376 0 01-.375.375H1.875a.376.376 0 00-.375.375v.75c0 .206.169.375.375.375h9.75c.206 0 .375.169.375.375v.75a.376.376 0 01-.375.375H.375a.376.376 0 00-.375.375v.75c0 .206.169.375.375.375h9.75c.206 0 .375.169.375.375v.75a.376.376 0 01-.375.375H3v6a4.501 4.501 0 009 0h6a4.501 4.501 0 009 0h2.25c.413 0 .75-.337.75-.75v-1.5a.752.752 0 00-.75-.75zM7.5 21.75a2.25 2.25 0 11.001-4.501A2.25 2.25 0 017.5 21.75zm15 0a2.25 2.25 0 11.001-4.501 2.25 2.25 0 01-.001 4.501zM26.25 12H19.5V6.75h2.067l4.683 4.683V12z" fill="#fff"/></svg>