<svg width="30" height="24" fill="none" xmlns="http://www.w3.org/2000/svg"><g clip-path="url(#clip0)" fill="#fff"><path opacity=".4" d="M11.819 11.4a6.177 6.177 0 015.762-3.9h1.8a2.694 2.694 0 00-1.541-1.71l-.215-.532-.836-2.3a4.684 4.684 0 00-4.37-2.96H7.08a4.684 4.684 0 00-4.37 2.96l-.836 2.3-.213.532A2.69 2.69 0 000 8.275V9.62a2.672 2.672 0 001.009 2.084V13.5a1.5 1.5 0 001.5 1.5h1.034a1.5 1.5 0 001.5-1.5V12H11.6l.219-.598zm-6.61-7.088a2.019 2.019 0 011.874-1.313h5.336c.825 0 1.566.52 1.875 1.313l.565 1.687H4.641l.567-1.687zm-1.646 5.805c-.675 0-1.126-.448-1.126-1.12 0-.673.45-1.123 1.126-1.123.675 0 1.687 1.01 1.687 1.683s-1.012.56-1.687.56z"/><path d="M28.34 14.792l-.215-.533-.838-2.3a4.684 4.684 0 00-4.368-2.96H17.58a4.684 4.684 0 00-4.37 2.96l-.836 2.3-.213.533a2.69 2.69 0 00-1.66 2.484v1.345a2.671 2.671 0 001.008 2.084V22.5a1.5 1.5 0 001.5 1.5h1.035a1.5 1.5 0 001.5-1.5V21h9.412v1.5a1.5 1.5 0 001.5 1.5h1.034a1.5 1.5 0 001.5-1.5v-1.795A2.672 2.672 0 0030 18.62v-1.345a2.69 2.69 0 00-1.66-2.484zm-12.632-1.48A2.019 2.019 0 0117.583 12h5.336c.825 0 1.566.52 1.875 1.312L25.359 15H15.141l.567-1.688zm-1.646 5.806c-.675 0-1.124-.449-1.124-1.122s.45-1.121 1.124-1.121c.676 0 1.688 1.01 1.688 1.682 0 .673-1.012.56-1.688.56zm12.376 0c-.675 0-1.688.112-1.688-.563 0-.674 1.012-1.68 1.688-1.68.675 0 1.125.448 1.125 1.121s-.45 1.122-1.125 1.122z"/></g><defs><clipPath id="clip0"><path fill="#fff" d="M0 0h30v24H0z"/></clipPath></defs></svg>