<svg width="31" height="32" fill="none" xmlns="http://www.w3.org/2000/svg"><path d="M28.163 17.93c-.787 6.504-5.432 6.91-6.293 7.194-.366.122-3.752.983-8.015.699l-4.613 5.116-.008-5.896-.032-.008c-6.204-1.762-5.993-8.38-5.928-11.848.073-3.468.706-6.318 2.598-8.226C9.267 1.81 16.275 2.28 16.275 2.28c5.912.024 8.746 1.851 9.403 2.46 2.185 1.909 3.297 6.489 2.485 13.188zm-.869-14.813C26.514 2.387 23.38.056 16.39.023c0 0-8.243-.511-12.263 3.265-2.233 2.29-3.02 5.644-3.11 9.801C.935 17.247.83 25.035 8.162 27.146h.008v3.224s-.048 1.307.796 1.567c1.015.325 1.608-.666 2.583-1.738a72.614 72.614 0 001.819-2.103c5.018.43 8.875-.56 9.306-.698 1.015-.341 6.74-1.088 7.674-8.876.95-8.04-.48-13.115-3.054-15.405z" fill="#834995"/><path d="M22.82 18.904s-.942-.804-1.397-1.145a17.41 17.41 0 00-1.502-.983c-.69-.39-1.397-.146-1.69.244l-.608.78c-.309.397-.788.324-.91.3-.893-.228-1.843-.78-2.818-1.722-.982-.95-1.583-1.94-1.794-2.972l-.017-.065c-.056-.422.017-.617.187-.91l.033-.024c.406-.381 1.17-.844 1.267-1.283.3-.763-1-2.363-1.178-2.639 0 0-.942-1.242-1.275-1.486-.357-.3-.918-.471-1.486-.122l-.032.024c-1.625 1.097-2.21 1.73-2.047 2.664l.081.382c.82 2.59 2.412 5.351 4.775 7.812 2.34 2.428 4.873 3.881 7.366 4.888.65.22 1.323.033 2.014-.56l.008-.008a6.354 6.354 0 001.258-1.592v-.008c.317-.625.212-1.194-.235-1.575zm-3.882-5.677a.193.193 0 01-.186-.178c-.033-.674-.212-1.186-.536-1.527-.325-.341-.804-.528-1.438-.568a.197.197 0 01-.178-.203c.008-.106.089-.187.194-.18.731.042 1.292.269 1.681.683.39.414.61 1.007.642 1.779a.19.19 0 01-.179.203" fill="#834995"/><path d="M20.782 13.86a.19.19 0 01-.187-.194c.032-1.291-.35-2.38-1.12-3.24a3.996 3.996 0 00-1.39-1.007c-.535-.244-1.169-.39-1.859-.439a.185.185 0 01-.17-.203.19.19 0 01.203-.178c1.486.113 2.663.641 3.5 1.575.836.934 1.25 2.12 1.218 3.508a.195.195 0 01-.195.179z" fill="#834995"/><path d="M22.674 14.624a.184.184 0 01-.187-.187c-.008-1.137-.179-2.168-.512-3.061a6.562 6.562 0 00-1.478-2.323 6.778 6.778 0 00-2.2-1.478c-.812-.333-1.714-.503-2.688-.503a.19.19 0 01-.187-.195c0-.106.081-.187.187-.187 2.046.016 3.776.715 5.148 2.087a6.786 6.786 0 011.568 2.46c.349.935.527 2.015.536 3.2 0 .098-.082.179-.187.187z" fill="#834995"/></svg>