<svg width="32" height="32" fill="none" xmlns="http://www.w3.org/2000/svg"><path d="M27.336 4.65A15.868 15.868 0 0016.066 0C7.284 0 .137 7.113.134 15.856a15.774 15.774 0 002.126 7.927L0 32l8.446-2.205a15.977 15.977 0 007.613 1.93h.007c8.78 0 15.928-7.114 15.932-15.856A15.725 15.725 0 0027.336 4.65zm-11.27 24.397h-.005a13.269 13.269 0 01-6.74-1.837l-.484-.286-5.012 1.309 1.338-4.864-.315-.498a13.102 13.102 0 01-2.024-7.014C2.827 8.59 8.767 2.678 16.07 2.678a13.185 13.185 0 019.362 3.865 13.07 13.07 0 013.875 9.325c-.003 7.267-5.944 13.18-13.242 13.18z" fill="#E0E0E0"/><path d="M.731 31.088l2.157-7.841a15.052 15.052 0 01-2.03-7.565C.862 7.339 7.682.551 16.062.551a15.141 15.141 0 0110.755 4.438 15.004 15.004 0 014.45 10.705c-.004 8.343-6.825 15.132-15.204 15.132h-.007a15.253 15.253 0 01-7.265-1.842l-8.06 2.104z" fill="url(#paint0_linear)"/><path fill-rule="evenodd" clip-rule="evenodd" d="M12.129 9.124c-.295-.652-.605-.665-.886-.677-.23-.01-.492-.009-.754-.009s-.689.098-1.05.49c-.36.392-1.377 1.34-1.377 3.268 0 1.927 1.41 3.79 1.607 4.052.197.26 2.723 4.343 6.722 5.913 3.324 1.305 4 1.046 4.722.98.722-.065 2.329-.947 2.657-1.862.328-.915.328-1.699.23-1.863-.1-.163-.362-.26-.755-.457-.394-.196-2.328-1.144-2.69-1.274-.36-.13-.622-.196-.885.196-.262.392-1.016 1.274-1.245 1.535-.23.262-.46.295-.853.099-.394-.197-1.661-.61-3.165-1.945-1.17-1.038-1.96-2.32-2.189-2.713-.23-.391-.024-.604.173-.799.177-.175.394-.457.59-.686.197-.229.262-.392.393-.653.132-.262.066-.49-.032-.687-.099-.196-.863-2.133-1.213-2.908z" fill="#fff"/><path d="M27.205 4.6A15.686 15.686 0 0016.065.003C7.384.003.319 7.034.315 15.677a15.593 15.593 0 002.103 7.836L.183 31.636l8.35-2.18a15.794 15.794 0 007.525 1.908h.007c8.68 0 15.745-7.032 15.749-15.675A15.545 15.545 0 0027.205 4.6zm-11.14 24.117h-.005A13.118 13.118 0 019.397 26.9l-.478-.283-4.954 1.294 1.322-4.808-.311-.493a12.951 12.951 0 01-2.001-6.933C2.977 8.495 8.849 2.65 16.07 2.65a13.034 13.034 0 019.254 3.82 12.92 12.92 0 013.83 9.217c-.002 7.184-5.875 13.029-13.09 13.029z" fill="#fff"/><defs><linearGradient id="paint0_linear" x1="15.999" y1="31.088" x2="15.999" y2=".551" gradientUnits="userSpaceOnUse"><stop stop-color="#20B038"/><stop offset="1" stop-color="#60D66A"/></linearGradient></defs></svg>