<svg width="70" height="70" viewBox="0 0 70 70" fill="none" xmlns="http://www.w3.org/2000/svg">
<path d="M33.1725 53.9737C22.3293 53.9737 13.5088 45.1514 13.5088 34.3102C13.5088 23.4651 22.3293 14.6447 33.1725 14.6447C44.0158 14.6447 52.8381 23.4652 52.8381 34.3102C52.8381 38.4086 51.5757 42.217 49.4215 45.3707L53.338 49.1437C56.384 44.9861 58.1844 39.8583 58.1844 34.3092C58.1844 20.4303 46.9332 9.1792 33.0544 9.1792C19.1755 9.1792 7.92436 20.4302 7.92436 34.3092C7.92436 48.1881 19.1754 59.4391 33.0544 59.4391C39.5865 59.4391 45.536 56.9465 50.0049 52.8611L45.7868 49.3808C42.3698 52.2453 37.9697 53.9737 33.1725 53.9737Z" fill="#FB6C4D"/>
<path d="M45.4237 41.5196C46.6682 39.4049 47.3829 36.9411 47.3829 34.3103C47.3829 26.4459 41.0084 20.0714 33.1459 20.0714C25.2816 20.0714 18.907 26.4459 18.907 34.3103C18.907 42.1727 25.2816 48.5473 33.1459 48.5473C36.2656 48.5473 39.151 47.5433 41.497 45.8412L36.4316 41.6618C35.4557 42.0854 34.38 42.3218 33.2483 42.3218C28.8233 42.3218 25.2361 38.7349 25.2361 34.3093C25.2361 29.8844 28.8234 26.297 33.2483 26.297C37.6728 26.297 41.2606 29.8844 41.2606 34.3093C41.2606 35.2703 41.0877 36.1899 40.777 37.0433L45.4237 41.5196Z" fill="#FB6C4D"/>
<path d="M62.0305 55.3947L57.5729 51.0728C57.6239 50.9978 57.2538 50.8656 56.8895 50.8531L53.3029 51.3872L53.0763 51.1702L38.7449 37.3632L38.7778 37.3262C38.8697 37.2232 38.8605 37.0655 38.7577 36.9736L38.754 36.9703C38.6511 36.8784 38.4932 36.8874 38.4014 36.9904L38.3648 37.0314C37.8338 36.674 37.1439 36.6758 36.6178 37.0183L33.2099 34.3892C33.181 34.3668 33.1223 34.3892 33.0772 34.4396L33.0755 34.4415C33.0304 34.4921 33.015 34.5528 33.0405 34.5792L36.0471 37.6718C35.7856 38.2273 35.8682 38.8963 36.2757 39.3737L36.2391 39.4148C36.1472 39.5178 36.1564 39.6757 36.2592 39.7674L36.2629 39.7707C36.3658 39.8626 36.5236 39.8534 36.6155 39.7506L36.6486 39.7136L51.9988 52.3793L52.5733 52.8535L52.2267 52.5676L52.1067 56.1309C52.0969 56.4216 52.2231 56.7002 52.448 56.8846L57.2097 60.7881C57.3039 60.8652 57.4452 60.7975 57.4442 60.6758L57.4085 56.844L59.2409 58.3564C59.332 58.4319 59.4461 58.4641 59.5571 58.4555C59.6256 58.4503 59.6919 58.4276 59.7522 58.3913C59.7654 58.3835 59.7788 58.3769 59.7911 58.3675C59.7952 58.3643 59.7987 58.36 59.8027 58.3568C59.8209 58.3422 59.8388 58.3269 59.8548 58.309L59.8556 58.3081C59.8556 58.308 59.8557 58.308 59.8559 58.3079L59.8615 58.3014C59.8616 58.3013 59.8616 58.3013 59.8616 58.3013L59.8626 58.3003C59.8959 58.2629 59.9203 58.2202 59.9387 58.1759C59.9419 58.1681 59.9467 58.1608 59.9494 58.1527C59.9497 58.1519 59.9497 58.1508 59.9501 58.15C59.9681 58.0976 59.9762 58.0426 59.9741 57.9881C59.9703 57.8768 59.9252 57.7669 59.8397 57.6847L58.6875 56.576L58.1398 56.0485L61.9427 55.6481C62.0677 55.6349 62.1205 55.482 62.0305 55.3947Z" fill="#FB6C4D"/>
</svg>
