<svg width="14" height="16" viewBox="0 0 14 16" fill="none" xmlns="http://www.w3.org/2000/svg">
<path d="M8.70711 8.70711C9.09763 8.31658 9.09763 7.68342 8.70711 7.29289L2.34315 0.928933C1.95262 0.538408 1.31946 0.538408 0.928932 0.928933C0.538407 1.31946 0.538407 1.95262 0.928932 2.34315L6.58579 8L0.928933 13.6569C0.538408 14.0474 0.538408 14.6805 0.928933 15.0711C1.31946 15.4616 1.95262 15.4616 2.34315 15.0711L8.70711 8.70711ZM7 9L8 9L8 7L7 7L7 9Z" fill="#FB6C4D"/>
<path d="M13.7071 8.70711C14.0976 8.31658 14.0976 7.68342 13.7071 7.29289L7.34315 0.928933C6.95262 0.538408 6.31946 0.538408 5.92893 0.928933C5.53841 1.31946 5.53841 1.95262 5.92893 2.34315L11.5858 8L5.92893 13.6569C5.53841 14.0474 5.53841 14.6805 5.92893 15.0711C6.31946 15.4616 6.95262 15.4616 7.34315 15.0711L13.7071 8.70711ZM12 9L13 9L13 7L12 7L12 9Z" fill="#FB6C4D"/>
</svg>
