<svg width="70" height="70" viewBox="0 0 70 70" fill="none" xmlns="http://www.w3.org/2000/svg">
<path d="M35 60.6666V65.3333C40.4647 65.3333 44.8047 63.343 48.1203 60.6666H35Z" fill="#FB6C4D"/>
<path d="M11.6667 37.3334V42C11.6667 47.8334 16.3334 49 16.3334 49C16.3334 49 21 63 35 63" stroke="#FB6C4D" stroke-width="2" stroke-miterlimit="10" stroke-linecap="round"/>
<path d="M60.6666 39.6667H53.6666C53.6666 25.1067 46.6666 18.6667 46.6666 18.6667C39.6666 35 16.3333 23.3334 16.3333 39.6667H9.33331C9.33331 39.6667 9.33331 39.3913 9.33331 30.3334C9.33331 14 23.3333 4.66669 35 4.66669C44.3333 4.66669 46.6666 9.33335 46.6666 9.33335C56 9.33335 60.6666 21 60.6666 30.3334V39.6667Z" fill="#FB6C4D"/>
<path d="M36.1666 49C35.756 49 34.244 49 33.8333 49C31.9013 49 30.3333 50.568 30.3333 52.5C30.3333 54.432 31.9013 56 33.8333 56C34.244 56 35.756 56 36.1666 56C38.0986 56 39.6666 54.432 39.6666 52.5C39.6666 50.568 38.0986 49 36.1666 49Z" fill="#FB6C4D"/>
<path d="M37.3333 53.6667H49C54.1543 53.6667 58.3333 49.4877 58.3333 44.3334V37.3334" stroke="#FB6C4D" stroke-width="2" stroke-miterlimit="10" stroke-linecap="round"/>
<path d="M58.3334 46.6667H53.6667V35H58.3334C60.9117 35 63 37.0883 63 39.6667V42C63 44.5783 60.9117 46.6667 58.3334 46.6667Z" fill="#FB6C4D"/>
</svg>
