<svg width="70" height="70" viewBox="0 0 70 70" fill="none" xmlns="http://www.w3.org/2000/svg">
<path d="M41.0583 8.75C38.8265 8.75 37.1875 10.8106 37.1875 13.125C37.1875 14.4025 37.6979 15.5873 38.5205 16.4062C37.6991 17.2252 37.1875 18.4112 37.1875 19.6875C37.1875 20.965 37.6979 22.1498 38.5205 22.9688C37.6991 23.7877 37.1875 24.9737 37.1875 26.25C37.1875 27.5353 37.706 28.7248 38.5376 29.5441C38.2119 29.8658 37.9468 30.2382 37.7344 30.6549C33.6397 30.7799 29.9416 32.4038 27.1429 35H12.6208C10.389 35 8.75 37.0606 8.75 39.375C8.75 40.6525 9.26037 41.8373 10.083 42.6562C9.26162 43.4752 8.75 44.6612 8.75 45.9375C8.75 47.215 9.26037 48.3998 10.083 49.2188C9.26162 50.0377 8.75 51.2237 8.75 52.5C8.75 53.7775 9.26037 54.9623 10.083 55.7812C9.26162 56.6002 8.75 57.7862 8.75 59.0625C8.75 61.3771 10.389 63.4375 12.6208 63.4375H37.2815C37.3737 63.4377 37.4656 63.4262 37.5549 63.4033C37.7832 63.4128 38.0079 63.4375 38.2385 63.4375C38.5584 63.4375 38.8716 63.4086 39.187 63.3905C39.2923 63.4224 39.4017 63.4382 39.5117 63.4375H59.5667C61.7985 63.4375 63.4375 61.3771 63.4375 59.0625C63.4375 57.7862 62.9259 56.6002 62.1045 55.7812C62.9271 54.9623 63.4375 53.7775 63.4375 52.5C63.4375 51.2237 62.9259 50.0377 62.1045 49.2188C62.9271 48.3998 63.4375 47.215 63.4375 45.9375C63.4375 44.6612 62.9259 43.4752 62.1045 42.6562C62.9271 41.8373 63.4375 40.6525 63.4375 39.375C63.4375 38.0987 62.9259 36.9127 62.1045 36.0938C62.9271 35.2748 63.4375 34.09 63.4375 32.8125C63.4375 31.5362 62.9259 30.3502 62.1045 29.5312C62.9271 28.7123 63.4375 27.5275 63.4375 26.25C63.4375 24.9737 62.9259 23.7877 62.1045 22.9688C62.9271 22.1498 63.4375 20.965 63.4375 19.6875C63.4375 18.4112 62.9259 17.2252 62.1045 16.4062C62.9271 15.5873 63.4375 14.4025 63.4375 13.125C63.4375 10.8106 61.7985 8.75 59.5667 8.75H41.0583ZM41.0583 10.9375H59.5667C60.411 10.9375 61.25 11.804 61.25 13.125C61.25 14.4462 60.411 15.3125 59.5667 15.3125H41.0583C40.214 15.3125 39.375 14.4462 39.375 13.125C39.375 11.804 40.214 10.9375 41.0583 10.9375ZM41.0583 17.5H59.5667C60.411 17.5 61.25 18.3665 61.25 19.6875C61.25 21.0087 60.411 21.875 59.5667 21.875H41.0583C40.214 21.875 39.375 21.0087 39.375 19.6875C39.375 18.3665 40.214 17.5 41.0583 17.5ZM41.0583 24.0625H59.5667C60.411 24.0625 61.25 24.929 61.25 26.25C61.25 27.5712 60.411 28.4375 59.5667 28.4375H41.0583C40.214 28.4375 39.375 27.5712 39.375 26.25C39.375 24.929 40.214 24.0625 41.0583 24.0625ZM41.0583 30.625H59.5667C60.4111 30.625 61.25 31.4915 61.25 32.8125C61.25 34.1337 60.4111 35 59.5667 35H49.3256C46.9205 32.769 43.8516 31.2573 40.4388 30.7959C40.6365 30.6935 40.8428 30.625 41.0583 30.625ZM38.2385 32.8168C46.118 32.8168 52.5 39.1768 52.5 47.0312C52.5 54.8896 46.1181 61.25 38.2385 61.25C30.3565 61.25 24.0625 54.8975 24.0625 47.0312C24.0625 39.1687 30.3565 32.8168 38.2385 32.8168ZM12.6208 37.1875H25.1733C24.1827 38.5073 23.3878 39.9774 22.8278 41.5625H12.6208C11.7765 41.5625 10.9375 40.6962 10.9375 39.375C10.9375 38.054 11.7765 37.1875 12.6208 37.1875ZM51.2952 37.1875H59.5667C60.411 37.1875 61.25 38.054 61.25 39.375C61.25 40.6962 60.411 41.5625 59.5667 41.5625H53.6493C53.0871 39.9772 52.2869 38.5076 51.2952 37.1875ZM32.7997 39.3793V56.8793H34.9872V51.1713C35.8892 51.9903 37.0087 52.5043 38.277 52.5043C41.4342 52.5043 43.7501 49.4356 43.75 45.9418C43.75 42.4479 41.4341 39.3793 38.277 39.3793C37.0087 39.3793 35.8892 39.889 34.9872 40.708V39.3793H32.7997ZM38.277 41.5668C39.9581 41.5668 41.5625 43.3949 41.5625 45.9418C41.5626 48.4887 39.9582 50.3168 38.277 50.3168C36.5958 50.3168 34.9871 48.4887 34.9872 45.9418C34.9872 43.3949 36.5958 41.5668 38.277 41.5668ZM12.6208 43.75H22.204C21.9894 44.8096 21.875 45.9093 21.875 47.0312C21.875 47.4011 21.9065 47.7611 21.9305 48.125H12.6208C11.7765 48.125 10.9375 47.2588 10.9375 45.9375C10.9375 44.6165 11.7765 43.75 12.6208 43.75ZM54.256 43.75H59.5667C60.411 43.75 61.25 44.6165 61.25 45.9375C61.25 47.2588 60.411 48.125 59.5667 48.125H54.632C54.6562 47.7618 54.6875 47.4005 54.6875 47.0312C54.688 46.8845 54.6589 46.7392 54.6021 46.604C54.6006 46.604 54.5992 46.604 54.5978 46.604C54.5708 45.629 54.4456 44.6764 54.256 43.75ZM12.6208 50.3125H22.204C22.5179 51.8615 23.0556 53.3293 23.772 54.6875H12.6208C11.7765 54.6875 10.9375 53.8213 10.9375 52.5C10.9375 51.179 11.7765 50.3125 12.6208 50.3125ZM54.3585 50.3125H59.5667C60.411 50.3125 61.25 51.179 61.25 52.5C61.25 53.8213 60.411 54.6875 59.5667 54.6875H52.7734C53.4961 53.3297 54.0413 51.8617 54.3585 50.3125ZM43.75 50.351V52.5385H45.9204V50.351H43.75ZM25.1178 56.7981C26.4554 58.6021 28.1451 60.123 30.0995 61.25H12.6208C11.7765 61.25 10.9375 60.3838 10.9375 59.0625C10.9375 57.7415 11.7765 56.875 12.6208 56.875H24.7034C24.8452 56.8765 24.9859 56.8504 25.1178 56.7981ZM51.3635 56.875H59.5667C60.411 56.875 61.25 57.7415 61.25 59.0625C61.25 60.3838 60.411 61.25 59.5667 61.25H46.4032C48.3405 60.1387 50.0237 58.6467 51.3635 56.875Z" fill="#FB6C4D"/>
</svg>
