<svg width="24" height="24" viewBox="0 0 24 24" fill="none" xmlns="http://www.w3.org/2000/svg">
<path fill-rule="evenodd" clip-rule="evenodd" d="M4.53058 9C4.51034 8.75296 4.5 8.50281 4.5 8.25C4.5 3.69365 7.85786 0 12 0C16.1421 0 19.5 3.69365 19.5 8.25C19.5 8.50281 19.4897 8.75296 19.4694 9H19.5C19.5 13.5086 12 24 12 24C12 24 4.5 13.5335 4.5 9H4.53058ZM12 10.5C13.6569 10.5 15 9.15685 15 7.5C15 5.84314 13.6569 4.5 12 4.5C10.3431 4.5 9 5.84314 9 7.5C9 9.15685 10.3431 10.5 12 10.5Z" fill="#FB6C4D"/>
</svg>
