<svg width="22" height="22" viewBox="0 0 22 22" fill="none" xmlns="http://www.w3.org/2000/svg">
<path d="M17.27 5.125H4.73C4.0219 5.12682 3.34343 5.40939 2.84337 5.91073C2.34332 6.41208 2.0625 7.09128 2.0625 7.79938V15.5131C2.0625 16.2212 2.34332 16.9004 2.84337 17.4018C3.34343 17.9031 4.0219 18.1857 4.73 18.1875H17.27C17.9781 18.1857 18.6566 17.9031 19.1566 17.4018C19.6567 16.9004 19.9375 16.2212 19.9375 15.5131V7.79938C19.9375 7.09128 19.6567 6.41208 19.1566 5.91073C18.6566 5.40939 17.9781 5.12682 17.27 5.125ZM17.27 6.5H17.38L11 11.1475L4.62 6.5H4.73H17.27ZM18.5625 15.5131C18.5625 15.8566 18.4266 16.186 18.1844 16.4295C17.9422 16.673 17.6134 16.8107 17.27 16.8125H4.73C4.38658 16.8107 4.05784 16.673 3.81564 16.4295C3.57345 16.186 3.4375 15.8566 3.4375 15.5131V7.79938C3.43908 7.6614 3.46227 7.52453 3.50625 7.39375L10.6012 12.5569C10.719 12.6429 10.861 12.6893 11.0069 12.6893C11.1527 12.6893 11.2948 12.6429 11.4125 12.5569L18.5006 7.39375C18.5446 7.52453 18.5678 7.6614 18.5694 7.79938L18.5625 15.5131Z" fill="#FB6C4D"/>
</svg>
