<svg width="24" height="24" viewBox="0 0 24 24" fill="none" xmlns="http://www.w3.org/2000/svg">
<path d="M12 1C5.925 1 1 5.92475 1 12C1 18.0753 5.925 23 12 23C18.075 23 23 18.0753 23 12C23 5.92475 18.075 1 12 1ZM12 21C7.0295 21 3 16.9705 3 12C3 7.0295 7.0295 3 12 3C16.9705 3 21 7.0295 21 12C21 16.9705 16.9705 21 12 21Z" fill="#FB6C4D"/>
<path d="M16.071 9.29244C15.6805 8.90219 15.0473 8.90219 14.6568 9.29244L11.1213 12.8282L9.707 11.4139C9.3165 11.0234 8.6835 11.0234 8.29275 11.4139C7.90225 11.8044 7.90225 12.4377 8.29275 12.8284L10.4138 14.9492C10.8043 15.3397 11.4378 15.3397 11.8283 14.9492L16.0708 10.7067C16.4615 10.3162 16.462 9.68319 16.071 9.29244Z" fill="#FB6C4D"/>
</svg>
