<svg width="179" height="50" viewBox="0 0 179 50" fill="none" xmlns="http://www.w3.org/2000/svg">
<g clip-path="url(#clip0)">
<rect width="178.571" height="50" fill="white"/>
<path fill-rule="evenodd" clip-rule="evenodd" d="M54.4064 4.41325L54.3957 12.2224L54.298 13.7794L55.2887 12.4455L64.9142 2.23468C66.2109 0.834799 68.3749 0.255156 70.1392 0.966227C71.522 1.52337 72.3565 2.83754 72.3495 4.41325L72.3601 33.3968L45.0283 33.4071L36.6224 41.6881L72.36 41.7096L72.3563 48.656H46.8945H27.8462C26.5115 48.6548 25.1347 47.9793 24.5968 46.6322C23.9757 45.0766 24.822 43.4771 25.8906 42.3883L39.7362 28.2925C41.0455 27.0474 42.5974 26.2817 44.4209 26.2817H65.5355L65.549 11.6105L54.8015 22.6396C53.6086 23.7927 51.7263 24.3794 50.2163 23.7127C48.9605 23.1577 48.0296 21.733 48.0308 20.2922L48.0393 11.2236L10.9627 48.656H1.04593L46.977 2.22849C48.2734 0.832418 50.4344 0.256346 52.1957 0.965989C53.5784 1.52361 54.4059 2.83742 54.4064 4.41325Z" fill="#333333"/>
<path fill-rule="evenodd" clip-rule="evenodd" d="M157.478 40.0019H162.705V42.9343C162.705 47.0312 160.477 49.0793 156.021 49.0793C154.014 49.0793 152.473 48.6425 151.396 47.7692C150.066 46.6881 149.4 44.9619 149.4 42.5913V32.4841C149.4 30.1347 150.066 28.4187 151.396 27.3376C152.494 26.443 154.036 25.9961 156.021 25.9961C158.175 25.9961 159.77 26.3809 160.804 27.1504C162.072 28.0859 162.705 29.6768 162.705 31.9231V34.3559H157.478V31.2992C157.478 30.7791 157.373 30.3581 157.156 30.0355C156.945 29.713 156.569 29.5524 156.037 29.5524C155.546 29.5524 155.192 29.713 154.981 30.0355C154.765 30.3581 154.658 30.7791 154.658 31.2992V43.7762C154.658 44.3168 154.759 44.7432 154.965 45.0555C155.166 45.3672 155.524 45.5229 156.037 45.5229C156.569 45.5229 156.945 45.3624 157.156 45.0398C157.373 44.7173 157.478 44.2963 157.478 43.7762V40.0019Z" fill="#333333"/>
<path fill-rule="evenodd" clip-rule="evenodd" d="M147.963 48.6426H143.654V30.4566L140.202 48.6426H133.517V26.4329H137.825L137.836 42.2169L140.741 26.4329H147.963L147.963 48.6426Z" fill="#333333"/>
<path fill-rule="evenodd" clip-rule="evenodd" d="M124.033 29.6146V35.4787H124.461H124.889C125.564 35.4787 126.029 35.3332 126.282 35.042C126.642 34.6267 126.821 33.795 126.821 32.5471C126.821 31.3826 126.683 30.6233 126.409 30.2701C126.05 29.8326 125.258 29.6146 124.033 29.6146ZM124.033 38.6299V45.4608C124.16 45.4821 124.35 45.4924 124.603 45.4924C125.596 45.4924 126.24 45.1493 126.535 44.4624C126.726 44.0052 126.821 43.1217 126.821 41.8117C126.821 40.3144 126.642 39.3883 126.282 39.035C126.008 38.7644 125.258 38.6299 124.033 38.6299ZM118.774 48.6426V26.4329H124.097C127.581 26.4329 129.799 26.8695 130.749 27.7429C131.635 28.5541 132.08 29.9161 132.08 31.8295C132.08 33.2435 131.837 34.3457 131.351 35.1357C130.76 36.1137 129.756 36.6644 128.341 36.7895V37.0075C129.883 37.0075 130.928 37.5275 131.477 38.5669C131.878 39.316 132.08 40.5638 132.08 42.3105C132.08 45.1382 131.446 46.9581 130.179 47.7693C129.25 48.3515 127.222 48.6426 124.097 48.6426H118.774Z" fill="#333333"/>
<path fill-rule="evenodd" clip-rule="evenodd" d="M109.69 29.6146V36.8824H110.514C111.38 36.8824 111.939 36.6125 112.192 36.072C112.382 35.6557 112.477 34.7202 112.477 33.2646C112.477 32.1411 112.435 31.3826 112.351 30.9869C112.161 30.0718 111.548 29.6146 110.514 29.6146H109.69ZM109.69 48.6426H104.431V26.4329H110.862C113.143 26.4329 114.811 26.7452 115.867 27.3683C117.113 28.1174 117.737 29.396 117.737 31.2056V35.2608C117.737 36.8414 117.113 38.0579 115.867 38.91C114.748 39.6794 113.333 40.0642 111.622 40.0642H109.69V48.6426Z" fill="#333333"/>
<path fill-rule="evenodd" clip-rule="evenodd" d="M103.101 48.6426H92.204V26.4329H103.101V29.8019H97.4624V34.6683H101.313V38.0367H97.4624V45.2736H103.101V48.6426Z" fill="#333333"/>
<path fill-rule="evenodd" clip-rule="evenodd" d="M85.2031 40.0019H90.4302V42.9343C90.4302 47.0312 88.2017 49.0793 83.7457 49.0793C81.7394 49.0793 80.1981 48.6425 79.1209 47.7692C77.7906 46.6881 77.125 44.9619 77.125 42.5913V32.4841C77.125 30.1347 77.7906 28.4187 79.1209 27.3376C80.2188 26.443 81.7609 25.9961 83.7457 25.9961C85.8998 25.9961 87.4946 26.3809 88.5294 27.1504C89.7966 28.0859 90.4302 29.6768 90.4302 31.9231V34.3559H85.2031V31.2992C85.2031 30.7791 85.0976 30.3581 84.881 30.0355C84.6701 29.713 84.2946 29.5524 83.7616 29.5524C83.271 29.5524 82.9171 29.713 82.7062 30.0355C82.4896 30.3581 82.3833 30.7791 82.3833 31.2992V43.7762C82.3833 44.3168 82.484 44.7432 82.6902 45.0555C82.8907 45.3672 83.2495 45.5229 83.7616 45.5229C84.2946 45.5229 84.6701 45.3624 84.881 45.0398C85.0976 44.7173 85.2031 44.2963 85.2031 43.7762V40.0019Z" fill="#333333"/>
<path fill-rule="evenodd" clip-rule="evenodd" d="M132.864 18.9373C133.624 18.9373 134.116 18.6604 134.321 17.6446C134.467 16.9216 134.543 15.2637 134.543 12.6846V5.61515C134.556 2.65682 135.884 1.11158 138.656 1.11622H147.404V23.3261H142.146V4.48539H139.358V12.6846C139.358 15.4259 139.28 17.2835 139.137 18.2371C138.882 19.9412 138.318 21.1781 137.457 21.9492C136.464 22.8382 134.934 23.2906 132.864 23.2906V18.9373Z" fill="#333333"/>
<path fill-rule="evenodd" clip-rule="evenodd" d="M124.374 14.4981H126.275L125.356 4.60966L124.374 14.4981ZM122.347 1.11621H129.569L132.484 23.3261H127.257L126.655 17.8673H123.804L122.949 23.3261H118.514L122.347 1.11621Z" fill="#333333"/>
<path fill-rule="evenodd" clip-rule="evenodd" d="M81.3063 23.3261H77.0939V1.11621H84.8387L87.0559 16.9057L89.3212 1.11621H96.8919V23.3261H92.1401V4.60966L89.0359 23.3261H84.4113L81.3702 4.60966L81.3063 23.3261Z" fill="#333333"/>
<path fill-rule="evenodd" clip-rule="evenodd" d="M109.088 23.3261H98.191V1.11621H107.838H109.088H120.446V4.48538H116.771V23.3261H111.513V4.48538H109.088H107.838H103.449V9.35169H107.3V12.72H103.449V19.957H109.088V23.3261Z" fill="#333333"/>
<path fill-rule="evenodd" clip-rule="evenodd" d="M148.165 23.2906V18.9373C148.925 18.9373 149.418 18.6604 149.622 17.6446C149.768 16.9216 149.844 15.2637 149.844 12.6846V5.61515C149.857 2.65682 151.185 1.11158 153.958 1.11622H162.705V23.3261H157.447V4.48539H154.659V12.6846C154.659 15.4259 154.581 17.2835 154.438 18.2371C154.183 19.9412 153.62 21.1781 152.758 21.9492C151.765 22.8382 150.235 23.2906 148.165 23.2906Z" fill="white"/>
<path fill-rule="evenodd" clip-rule="evenodd" d="M172.753 1.84705C175.288 1.84705 177.335 3.89384 177.335 6.42848C177.335 8.9636 175.288 11.01 172.753 11.01C170.218 11.01 168.172 8.9636 168.172 6.42848C168.172 3.89384 170.218 1.84705 172.753 1.84705ZM172.753 1.12622C175.683 1.12622 178.056 3.49836 178.056 6.42848C178.056 9.35896 175.683 11.7312 172.753 11.7312C169.822 11.7312 167.45 9.35896 167.45 6.42848C167.45 3.49836 169.822 1.12622 172.753 1.12622ZM171.629 4.1817H172.745C173.466 4.1817 174.071 4.29824 174.071 5.13551C174.071 5.53051 173.769 6.13527 172.745 6.13527H171.629V4.1817ZM170.396 9.50765H171.629V7.04217H172.536C174.606 7.04217 173.094 8.76325 174.071 9.50765H175.304C175.094 9.29836 175.094 8.87967 175.094 8.08884C175.094 7.55408 175.094 6.74003 174.187 6.74003V6.55396C175.094 6.2517 175.304 5.53051 175.304 5.13551C175.304 3.69348 173.954 3.36765 173.164 3.36765H170.396V9.50765Z" fill="white"/>
</g>
<defs>
<clipPath id="clip0">
<rect width="178.571" height="50" fill="white"/>
</clipPath>
</defs>
</svg>
