<svg width="239" height="50" viewBox="0 0 239 50" fill="none" xmlns="http://www.w3.org/2000/svg">
<g clip-path="url(#clip0)">
<path d="M100.471 22.8001H95.8714V16.6001H90.5714V33.3001H95.9714V27.4001H100.571V33.3001H105.971V16.6001H100.571V22.8001H100.471ZM150.271 22.8001H145.671V16.6001H140.271V33.3001H145.671V27.4001H150.271V33.3001H155.671V16.6001H150.271V22.8001ZM232.171 21.5001H229.571V16.6001H224.171V33.3001H232.071C235.571 33.3001 238.371 31.4001 238.371 28.0001V26.8001C238.471 23.4001 235.571 21.5001 232.171 21.5001ZM231.571 29.2001H229.571V25.6001H231.371C232.871 25.6001 233.271 26.7001 233.271 27.4001C233.271 28.9001 231.971 29.2001 231.571 29.2001ZM197.571 27.0001H203.571V23.0001H197.571V21.0001H204.171V16.7001H192.171V33.4002H204.571V29.0001H197.571V27.0001ZM190.971 16.6001H185.171L182.371 22.9001H181.071V16.6001H175.671V33.3001H181.071V27.4001H182.371L185.271 33.3001H191.471L186.971 24.9001L190.971 16.6001ZM116.571 16.4001H113.971C110.471 16.4001 107.671 18.9001 107.671 22.7001V27.4001C107.671 31.3001 110.471 33.7001 113.971 33.7001H116.571C120.071 33.7001 122.871 31.2001 122.871 27.4001V22.7001C122.971 18.6001 120.071 16.4001 116.571 16.4001ZM117.571 27.7001C117.571 28.8001 116.671 29.7001 115.571 29.7001H115.071C113.971 29.7001 113.071 28.8001 113.071 27.7001V22.3001C113.071 21.2001 113.971 20.3001 115.071 20.3001H115.571C116.671 20.3001 117.571 21.2001 117.571 22.3001V27.7001ZM208.671 25.5001C208.671 28.0001 207.971 28.4001 207.071 28.8001C206.671 29.0001 205.571 29.0001 205.571 29.0001V33.4002H207.671C212.171 33.4002 213.871 30.8001 213.871 24.9001V21.1001H216.871V33.4002H222.271V16.6001H208.771V25.5001H208.671ZM132.671 16.6001H124.771V33.3001H130.171V29.2001H132.771C136.271 29.2001 139.071 27.3001 139.071 23.9001V22.0001C138.971 18.5001 136.171 16.6001 132.671 16.6001ZM133.771 23.4001C133.771 24.0001 133.471 25.2001 131.871 25.2001H130.071V20.8001H132.071C132.571 20.8001 133.671 21.2001 133.671 22.5001V23.4001H133.771ZM163.071 25.1001V16.7001H157.971V33.4002H162.671L168.171 25.0001V33.4002H173.271V16.6001H168.571L163.071 25.1001Z" fill="#333333"/>
<path d="M25.5714 33.1L50.5714 50V16.9L25.5714 0V33.1Z" fill="#00589C"/>
<path d="M0.571411 25C0.571411 38.8 11.7714 50 25.5714 50V0C11.7714 0 0.571411 11.2 0.571411 25ZM50.5714 0V50C64.3714 50 75.5714 38.8 75.5714 25C75.5714 11.2 64.3714 0 50.5714 0Z" fill="#0080C8"/>
</g>
<defs>
<clipPath id="clip0">
<rect x="0.571411" width="237.9" height="50" fill="white"/>
</clipPath>
</defs>
</svg>
