<svg width="16" height="16" viewBox="0 0 16 16" fill="none" xmlns="http://www.w3.org/2000/svg">
<path d="M15.4284 5.77678C15.4284 5.90773 15.3511 6.05059 15.1963 6.20535L11.9552 9.36606L12.7231 13.8304C12.729 13.872 12.732 13.9315 12.732 14.0089C12.732 14.1339 12.7008 14.2396 12.6383 14.3259C12.5758 14.4122 12.485 14.4554 12.3659 14.4554C12.2528 14.4554 12.1338 14.4196 12.0088 14.3482L7.99986 12.2411L3.99093 14.3482C3.85998 14.4196 3.74093 14.4554 3.63379 14.4554C3.50879 14.4554 3.41504 14.4122 3.35254 14.3259C3.29004 14.2396 3.25879 14.1339 3.25879 14.0089C3.25879 13.9732 3.26474 13.9137 3.27665 13.8304L4.0445 9.36606L0.794503 6.20535C0.645694 6.04463 0.571289 5.90178 0.571289 5.77678C0.571289 5.55654 0.737956 5.41963 1.07129 5.36606L5.55343 4.71428L7.56236 0.651777C7.67546 0.407729 7.82129 0.285706 7.99986 0.285706C8.17843 0.285706 8.32427 0.407729 8.43736 0.651777L10.4463 4.71428L14.9284 5.36606C15.2618 5.41963 15.4284 5.55654 15.4284 5.77678Z" fill="#FB6C4D"/>
</svg>
