<svg width="48" height="48" viewBox="0 0 48 48" fill="none" xmlns="http://www.w3.org/2000/svg">
<g clip-path="url(#clip0)">
<path d="M36.7084 31.1147C38.1407 29.7032 39.0001 27.9324 39.0001 26.0001C39.0001 21.8334 35.0157 18.3907 29.823 17.7761C28.1824 14.7761 24.3282 12.6667 19.8334 12.6667C13.8491 12.6667 9.00011 16.3959 9.00011 21.0001C9.00011 22.9272 9.85948 24.698 11.2918 26.1147C10.4949 27.7136 9.34906 28.9532 9.32823 28.974C9.00011 29.323 8.90636 29.8334 9.09906 30.2761C9.28656 30.7188 9.72406 31.0053 10.2032 31.0053C12.9897 31.0053 15.2397 29.9532 16.7241 28.9845C17.2032 29.0938 17.698 29.1772 18.2032 29.2397C19.8386 32.2292 23.6772 34.3334 28.1668 34.3334C29.2501 34.3334 30.2918 34.2084 31.2814 33.9792C32.7657 34.9428 35.0105 36.0001 37.8022 36.0001C38.2814 36.0001 38.7136 35.7136 38.9064 35.2709C39.0939 34.8282 39.0053 34.3178 38.6772 33.9688C38.6564 33.9532 37.5053 32.7136 36.7084 31.1147ZM16.2501 26.3074L15.3595 26.8855C14.6251 27.3595 13.8751 27.7345 13.1147 28.0001C13.2553 27.7553 13.3959 27.4949 13.5314 27.2292L14.3386 25.6095L13.047 24.3334C12.3439 23.6355 11.5001 22.4949 11.5001 21.0001C11.5001 17.8386 15.3178 15.1667 19.8334 15.1667C24.3491 15.1667 28.1668 17.8386 28.1668 21.0001C28.1668 24.1615 24.3491 26.8334 19.8334 26.8334C18.9741 26.8334 18.1147 26.7345 17.2814 26.5417L16.2501 26.3074ZM34.9532 29.3334L33.6668 30.6042L34.4741 32.224C34.6095 32.4897 34.7501 32.7501 34.8907 32.9949C34.1303 32.7292 33.3803 32.3542 32.6459 31.8803L31.7553 31.3022L30.7189 31.5417C29.8855 31.7345 29.0261 31.8334 28.1668 31.8334C25.3543 31.8334 22.8439 30.7865 21.3282 29.2449C26.6043 28.6824 30.6668 25.2136 30.6668 21.0001C30.6668 20.823 30.6459 20.6511 30.6303 20.4792C33.9845 21.2345 36.5001 23.4376 36.5001 26.0001C36.5001 27.4949 35.6564 28.6355 34.9532 29.3334Z" fill="#FB6C4D"/>
</g>
<circle cx="24" cy="24" r="23" stroke="#FB6C4D" stroke-width="2"/>
<defs>
<clipPath id="clip0">
<rect x="9" y="11" width="30" height="26.6667" fill="white"/>
</clipPath>
</defs>
</svg>
