<svg width="48" height="48" viewBox="0 0 48 48" fill="none" xmlns="http://www.w3.org/2000/svg">
<circle cx="24" cy="24" r="23" stroke="#FB6C4D" stroke-width="2"/>
<path d="M19.0875 9.19995C18.8016 9.25386 18.5953 9.50698 18.6 9.79995V14.6C18.6 14.9304 18.8695 15.2 19.2 15.2H22.2V26H15C14.8055 26 14.625 26.1007 14.5125 26.2624L10.3125 32.2624C10.2422 32.3632 10.2 32.4781 10.2 32.5999V35C10.2 35.3304 10.4672 35.5999 10.8 35.5999H11.4V36.1999H12.6V35.5999H26.775C26.5547 35.2203 26.3602 34.8195 26.2125 34.4H11.4V33.1999H25.9125C25.8469 32.8085 25.8 32.4101 25.8 32H11.9438L15.3188 27.1999H27.6563C28.0641 26.7453 28.5141 26.3398 29.025 26H25.8V15.2H28.8C29.1305 15.2 29.4 14.9304 29.4 14.6V9.79995C29.4 9.46948 29.1305 9.19995 28.8 9.19995H19.2C19.1813 9.19995 19.1625 9.19995 19.1438 9.19995C19.125 9.19995 19.1063 9.19995 19.0875 9.19995ZM19.8 10.4H28.2V14H19.8V10.4ZM26.4 12.2V13.4H27.6V12.2H26.4ZM23.4 15.2H24.6V26H23.4V15.2ZM33 26C29.693 26 27 28.6929 27 32C27 35.307 29.693 38 33 38C36.307 38 39 35.307 39 32C39 28.6929 36.307 26 33 26ZM33 27.1999C35.6578 27.1999 37.8 29.3421 37.8 32C37.8 34.6578 35.6578 36.7999 33 36.7999C30.3422 36.7999 28.2 34.6578 28.2 32C28.2 29.3421 30.3422 27.1999 33 27.1999ZM35.55 29.2062L32.3063 32.9749L30.3563 31.5124L29.6438 32.4874L32.4938 34.625L32.85 34.1937L36.45 29.9937L35.55 29.2062Z" fill="#FB6C4D"/>
</svg>
