<svg width="48" height="48" viewBox="0 0 48 48" fill="none" xmlns="http://www.w3.org/2000/svg">
<circle cx="24" cy="24" r="23" stroke="#FB6C4D" stroke-width="2"/>
<g clip-path="url(#clip0)">
<path d="M38.4 25.7724V22.1724L34.1154 21.4722C33.8616 20.4576 33.4632 19.5036 32.9382 18.63L35.4354 15.0708L32.8896 12.5262L29.376 15.0522C28.5 14.5218 27.54 14.1174 26.5182 13.863L25.7712 9.59937H22.1712L21.4776 13.8492C20.4552 14.1 19.4898 14.499 18.6114 15.027L15.108 12.5238L12.5622 15.0684L15.0264 18.5928C14.4936 19.4748 14.0886 20.439 13.8312 21.468L9.60001 22.1724V25.7724L13.8264 26.5218C14.0814 27.5484 14.487 28.5126 15.0216 29.3958L12.5238 32.8896L15.0684 35.4366L18.597 32.9652C19.4778 33.4944 20.4408 33.8964 21.4632 34.149L22.1712 38.4012H25.7712L26.5278 34.1382C27.5448 33.8802 28.506 33.4752 29.3784 32.9442L32.9316 35.4372L35.4768 32.8902L32.9406 29.3682C33.4656 28.4946 33.864 27.5394 34.1154 26.5248L38.4 25.7724ZM24 28.8C21.3492 28.8 19.2 26.6508 19.2 24C19.2 21.3492 21.3492 19.2 24 19.2C26.6508 19.2 28.8 21.3492 28.8 24C28.8 26.6508 26.6508 28.8 24 28.8Z" stroke="#FB6C4D" stroke-width="2" stroke-miterlimit="10" stroke-linecap="round"/>
</g>
<defs>
<clipPath id="clip0">
<rect x="9" y="9" width="30" height="30" fill="white"/>
</clipPath>
</defs>
</svg>
