<svg width="33" height="32" viewBox="0 0 33 32" fill="none" xmlns="http://www.w3.org/2000/svg">
<g clip-path="url(#clip0)">
<path d="M16.9984 32C25.8349 32 32.9984 24.8366 32.9984 16C32.9984 7.16344 25.8349 0 16.9984 0C8.1618 0 0.998352 7.16344 0.998352 16C0.998352 24.8366 8.1618 32 16.9984 32Z" fill="url(#paint0_linear)"/>
<path d="M14.065 23.3334C13.5466 23.3334 13.6348 23.1376 13.456 22.644L11.9317 17.6276L23.665 10.6667" fill="#C8DAEA"/>
<path d="M14.065 23.3333C14.465 23.3333 14.6417 23.1504 14.865 22.9333L16.9984 20.8589L14.3373 19.2543" fill="#A9C9DD"/>
<path d="M14.337 19.2546L20.785 24.0185C21.5209 24.4245 22.0518 24.2142 22.2351 23.3354L24.8598 10.967C25.1285 9.8897 24.4491 9.4009 23.7451 9.7205L8.33315 15.6633C7.28116 16.0853 7.28742 16.6722 8.14142 16.9337L12.0965 18.1682L21.2529 12.3916C21.6851 12.1294 22.0819 12.2702 21.7563 12.5593" fill="url(#paint1_linear)"/>
</g>
<defs>
<linearGradient id="paint0_linear" x1="22.3424" y1="5.344" x2="14.3424" y2="24" gradientUnits="userSpaceOnUse">
<stop stop-color="#37AEE2"/>
<stop offset="1" stop-color="#1E96C8"/>
</linearGradient>
<linearGradient id="paint1_linear" x1="19.0042" y1="16.0012" x2="21.5012" y2="21.6904" gradientUnits="userSpaceOnUse">
<stop stop-color="#EFF7FC"/>
<stop offset="1" stop-color="white"/>
</linearGradient>
<clipPath id="clip0">
<rect x="0.998352" width="32" height="32" fill="white"/>
</clipPath>
</defs>
</svg>
