<svg width="24" height="19" viewBox="0 0 24 19" fill="none" xmlns="http://www.w3.org/2000/svg">
<path opacity="0.4" d="M11.1667 9.66675H8.50008C8.36747 9.66675 8.2403 9.71943 8.14653 9.81319C8.05276 9.90696 8.00008 10.0341 8.00008 10.1667V11.8334C8.00008 11.966 8.05276 12.0932 8.14653 12.187C8.2403 12.2807 8.36747 12.3334 8.50008 12.3334H11.1667C11.2994 12.3334 11.4265 12.2807 11.5203 12.187C11.6141 12.0932 11.6667 11.966 11.6667 11.8334V10.1667C11.6667 10.0341 11.6141 9.90696 11.5203 9.81319C11.4265 9.71943 11.2994 9.66675 11.1667 9.66675ZM6.83341 9.66675H3.16675C3.03414 9.66675 2.90696 9.71943 2.81319 9.81319C2.71943 9.90696 2.66675 10.0341 2.66675 10.1667V11.8334C2.66675 11.966 2.71943 12.0932 2.81319 12.187C2.90696 12.2807 3.03414 12.3334 3.16675 12.3334H6.83341C6.96602 12.3334 7.0932 12.2807 7.18697 12.187C7.28074 12.0932 7.33341 11.966 7.33341 11.8334V10.1667C7.33341 10.0341 7.28074 9.90696 7.18697 9.81319C7.0932 9.71943 6.96602 9.66675 6.83341 9.66675ZM15.5001 9.66675H12.8334C12.7008 9.66675 12.5736 9.71943 12.4799 9.81319C12.3861 9.90696 12.3334 10.0341 12.3334 10.1667V11.8334C12.3334 11.966 12.3861 12.0932 12.4799 12.187C12.5736 12.2807 12.7008 12.3334 12.8334 12.3334H15.5001C15.6327 12.3334 15.7599 12.2807 15.8536 12.187C15.9474 12.0932 16.0001 11.966 16.0001 11.8334V10.1667C16.0001 10.0341 15.9474 9.90696 15.8536 9.81319C15.7599 9.71943 15.6327 9.66675 15.5001 9.66675ZM20.8334 9.66675H17.1667C17.0341 9.66675 16.907 9.71943 16.8132 9.81319C16.7194 9.90696 16.6667 10.0341 16.6667 10.1667V11.8334C16.6667 11.966 16.7194 12.0932 16.8132 12.187C16.907 12.2807 17.0341 12.3334 17.1667 12.3334H20.8334C20.966 12.3334 21.0932 12.2807 21.187 12.187C21.2807 12.0932 21.3334 11.966 21.3334 11.8334V10.1667C21.3334 10.0341 21.2807 9.90696 21.187 9.81319C21.0932 9.71943 20.966 9.66675 20.8334 9.66675Z" fill="white"/>
<path d="M22 0.333496H2C1.46957 0.333496 0.960859 0.54421 0.585786 0.919283C0.210714 1.29436 0 1.80306 0 2.3335L0 17.0002C0 17.5306 0.210714 18.0393 0.585786 18.4144C0.960859 18.7894 1.46957 19.0002 2 19.0002H22C22.5304 19.0002 23.0391 18.7894 23.4142 18.4144C23.7893 18.0393 24 17.5306 24 17.0002V2.3335C24 1.80306 23.7893 1.29436 23.4142 0.919283C23.0391 0.54421 22.5304 0.333496 22 0.333496ZM8 10.1668C8 10.0342 8.05268 9.90704 8.14645 9.81328C8.24022 9.71951 8.36739 9.66683 8.5 9.66683H11.1667C11.2993 9.66683 11.4265 9.71951 11.5202 9.81328C11.614 9.90704 11.6667 10.0342 11.6667 10.1668V11.8335C11.6667 11.9661 11.614 12.0933 11.5202 12.187C11.4265 12.2808 11.2993 12.3335 11.1667 12.3335H8.5C8.36739 12.3335 8.24022 12.2808 8.14645 12.187C8.05268 12.0933 8 11.9661 8 11.8335V10.1668ZM6.66667 15.8335C6.66667 15.9661 6.61399 16.0933 6.52022 16.187C6.42645 16.2808 6.29928 16.3335 6.16667 16.3335H3.16667C3.03406 16.3335 2.90688 16.2808 2.81311 16.187C2.71935 16.0933 2.66667 15.9661 2.66667 15.8335V15.5002C2.66667 15.3676 2.71935 15.2404 2.81311 15.1466C2.90688 15.0528 3.03406 15.0002 3.16667 15.0002H6.16667C6.29928 15.0002 6.42645 15.0528 6.52022 15.1466C6.61399 15.2404 6.66667 15.3676 6.66667 15.5002V15.8335ZM7.33333 11.8335C7.33333 11.9661 7.28065 12.0933 7.18689 12.187C7.09312 12.2808 6.96594 12.3335 6.83333 12.3335H3.16667C3.03406 12.3335 2.90688 12.2808 2.81311 12.187C2.71935 12.0933 2.66667 11.9661 2.66667 11.8335V10.1668C2.66667 10.0342 2.71935 9.90704 2.81311 9.81328C2.90688 9.71951 3.03406 9.66683 3.16667 9.66683H6.83333C6.96594 9.66683 7.09312 9.71951 7.18689 9.81328C7.28065 9.90704 7.33333 10.0342 7.33333 10.1668V11.8335ZM14.6667 15.8335C14.6667 15.9661 14.614 16.0933 14.5202 16.187C14.4265 16.2808 14.2993 16.3335 14.1667 16.3335H8.5C8.36739 16.3335 8.24022 16.2808 8.14645 16.187C8.05268 16.0933 8 15.9661 8 15.8335V15.5002C8 15.3676 8.05268 15.2404 8.14645 15.1466C8.24022 15.0528 8.36739 15.0002 8.5 15.0002H14.1667C14.2993 15.0002 14.4265 15.0528 14.5202 15.1466C14.614 15.2404 14.6667 15.3676 14.6667 15.5002V15.8335ZM16 11.8335C16 11.9661 15.9473 12.0933 15.8536 12.187C15.7598 12.2808 15.6326 12.3335 15.5 12.3335H12.8333C12.7007 12.3335 12.5735 12.2808 12.4798 12.187C12.386 12.0933 12.3333 11.9661 12.3333 11.8335V10.1668C12.3333 10.0342 12.386 9.90704 12.4798 9.81328C12.5735 9.71951 12.7007 9.66683 12.8333 9.66683H15.5C15.6326 9.66683 15.7598 9.71951 15.8536 9.81328C15.9473 9.90704 16 10.0342 16 10.1668V11.8335ZM21.3333 11.8335C21.3333 11.9661 21.2807 12.0933 21.1869 12.187C21.0931 12.2808 20.9659 12.3335 20.8333 12.3335H17.1667C17.0341 12.3335 16.9069 12.2808 16.8131 12.187C16.7193 12.0933 16.6667 11.9661 16.6667 11.8335V10.1668C16.6667 10.0342 16.7193 9.90704 16.8131 9.81328C16.9069 9.71951 17.0341 9.66683 17.1667 9.66683H20.8333C20.9659 9.66683 21.0931 9.71951 21.1869 9.81328C21.2807 9.90704 21.3333 10.0342 21.3333 10.1668V11.8335ZM21.3333 6.00016C21.3337 6.13158 21.308 6.26176 21.2579 6.38324C21.2077 6.50471 21.1341 6.61508 21.0412 6.708C20.9483 6.80093 20.8379 6.87458 20.7164 6.92471C20.5949 6.97485 20.4647 7.00049 20.3333 7.00016H17C16.8686 7.00049 16.7384 6.97485 16.6169 6.92471C16.4955 6.87458 16.3851 6.80093 16.2922 6.708C16.1992 6.61508 16.1256 6.50471 16.0754 6.38324C16.0253 6.26176 15.9997 6.13158 16 6.00016V4.00016C15.9997 3.86875 16.0253 3.73856 16.0754 3.61709C16.1256 3.49561 16.1992 3.38524 16.2922 3.29232C16.3851 3.1994 16.4955 3.12575 16.6169 3.07561C16.7384 3.02547 16.8686 2.99983 17 3.00016H20.3333C20.4647 2.99983 20.5949 3.02547 20.7164 3.07561C20.8379 3.12575 20.9483 3.1994 21.0412 3.29232C21.1341 3.38524 21.2077 3.49561 21.2579 3.61709C21.308 3.73856 21.3337 3.86875 21.3333 4.00016V6.00016Z" fill="white"/>
</svg>
