<svg width="24" height="24" viewBox="0 0 24 24" fill="none" xmlns="http://www.w3.org/2000/svg">
<g clip-path="url(#clip0)">
<path d="M23.4891 18.5484L18.0001 13.0594C16.9172 11.9766 15.3001 11.7656 13.9969 12.4078L9.00006 7.41094V4.5L3.00006 0L5.48959e-05 3L4.50006 9H7.41099L12.4079 13.9969C11.7704 15.3 11.9766 16.9172 13.0594 18L18.5485 23.4891C19.2329 24.1734 20.3391 24.1734 21.0188 23.4891L23.4891 21.0187C24.1688 20.3344 24.1688 19.2281 23.4891 18.5484V18.5484ZM15.5485 10.5469C16.8751 10.5469 18.1219 11.0625 19.0594 12L19.9688 12.9094C20.7094 12.5859 21.4126 12.1359 22.0219 11.5266C23.761 9.7875 24.3516 7.34062 23.7985 5.11875C23.6954 4.69687 23.1657 4.55156 22.8563 4.86094L19.3688 8.34844L16.186 7.81875L15.6563 4.63594L19.1438 1.14844C19.4532 0.839063 19.3032 0.309375 18.8766 0.201563C16.6547 -0.346875 14.2079 0.24375 12.4735 1.97813C11.1376 3.31406 10.5094 5.07656 10.5422 6.83438L14.3907 10.6828C14.7704 10.5937 15.1641 10.5469 15.5485 10.5469ZM10.6782 14.3906L8.02037 11.7328L0.876617 18.8812C-0.295258 20.0531 -0.295258 21.9516 0.876617 23.1234C2.04849 24.2953 3.94693 24.2953 5.1188 23.1234L10.9126 17.3297C10.5563 16.3969 10.4485 15.3797 10.6782 14.3906V14.3906ZM3.00006 22.125C2.38131 22.125 1.87505 21.6187 1.87505 21C1.87505 20.3766 2.37662 19.875 3.00006 19.875C3.62349 19.875 4.12506 20.3766 4.12506 21C4.12506 21.6187 3.62349 22.125 3.00006 22.125Z" fill="white"/>
</g>
<defs>
<clipPath id="clip0">
<rect width="24" height="24" fill="white"/>
</clipPath>
</defs>
</svg>
