<svg width="30" height="24" viewBox="0 0 30 24" fill="none" xmlns="http://www.w3.org/2000/svg">
<g clip-path="url(#clip0)">
<path opacity="0.4" d="M11.8186 11.4009C12.2759 10.2468 13.0703 9.25727 14.0983 8.56134C15.1262 7.86541 16.3401 7.49537 17.5814 7.49948H19.3819C19.2669 7.11857 19.069 6.76785 18.8023 6.47252C18.5357 6.17718 18.2069 5.94456 17.8397 5.79135L17.625 5.25885L16.7888 2.95823C16.4421 2.08298 15.8396 1.33253 15.0601 0.804745C14.2805 0.276959 13.36 -0.00366297 12.4186 -0.000523255H7.08142C6.14001 -0.00366297 5.2195 0.276959 4.43994 0.804745C3.66039 1.33253 3.05797 2.08298 2.71125 2.95823L1.875 5.25885L1.66172 5.79135C1.1702 5.99471 0.74999 6.33921 0.454216 6.78133C0.158442 7.22345 0.000376711 7.74333 0 8.27526L0 9.6201C0.00106512 10.0209 0.0922851 10.4163 0.266903 10.7771C0.441522 11.1378 0.695064 11.4547 1.00875 11.7042V13.4995C1.00875 13.8973 1.16679 14.2788 1.44809 14.5601C1.7294 14.8414 2.11093 14.9995 2.50875 14.9995H3.54329C3.94111 14.9995 4.32264 14.8414 4.60395 14.5601C4.88525 14.2788 5.04329 13.8973 5.04329 13.4995V11.9995H11.6002L11.8186 11.4009ZM5.20829 4.31198C5.51438 3.51885 6.25642 2.99948 7.08329 2.99948H12.4186C13.2436 2.99948 13.9852 3.51979 14.2936 4.31198L14.8594 5.99948H4.64063L5.20829 4.31198ZM3.56251 10.1174C2.8875 10.1174 2.4375 9.66885 2.4375 8.99619C2.4375 8.32354 2.8875 7.87448 3.56251 7.87448C4.23751 7.87448 5.25001 8.8837 5.25001 9.55682C5.25001 10.2299 4.23751 10.1174 3.56251 10.1174Z" fill="white"/>
<path d="M28.3397 14.7918L28.125 14.2593L27.2873 11.9587C26.9407 11.0837 26.3385 10.3334 25.5592 9.8056C24.78 9.27783 23.8598 8.99708 22.9186 8.99993H17.5814C16.64 8.99679 15.7195 9.27742 14.9399 9.8052C14.1604 10.333 13.5579 11.0834 13.2112 11.9587L12.375 14.2593L12.1617 14.7918C11.6704 14.9954 11.2504 15.3401 10.9549 15.7823C10.6594 16.2245 10.5015 16.7443 10.5014 17.2762V18.621C10.5024 19.0218 10.5937 19.4172 10.7683 19.778C10.9429 20.1388 11.1964 20.4556 11.5101 20.7051V22.4999C11.5101 22.8978 11.6682 23.2793 11.9495 23.5606C12.2308 23.8419 12.6123 23.9999 13.0101 23.9999H14.0447C14.4425 23.9999 14.824 23.8419 15.1053 23.5606C15.3866 23.2793 15.5447 22.8978 15.5447 22.4999V20.9999H24.9567V22.4999C24.9567 22.8978 25.1147 23.2793 25.396 23.5606C25.6774 23.8419 26.0589 23.9999 26.4567 23.9999H27.4912C27.8891 23.9999 28.2706 23.8419 28.5519 23.5606C28.8332 23.2793 28.9912 22.8978 28.9912 22.4999V20.7046C29.3049 20.4551 29.5585 20.1383 29.7331 19.7775C29.9077 19.4168 29.9989 19.0214 30 18.6206V17.2757C29.9997 16.7439 29.8419 16.2242 29.5464 15.7821C29.2509 15.34 28.8309 14.9954 28.3397 14.7918V14.7918ZM15.7083 13.3124C16.0143 12.5193 16.7564 11.9999 17.5833 11.9999H22.9186C23.7436 11.9999 24.4851 12.5202 24.7936 13.3124L25.3594 14.9999H15.1406L15.7083 13.3124ZM14.0625 19.1179C13.3875 19.1179 12.9375 18.6693 12.9375 17.9962C12.9375 17.3231 13.3875 16.8749 14.0625 16.8749C14.7375 16.8749 15.75 17.8842 15.75 18.5573C15.75 19.2304 14.7375 19.1179 14.0625 19.1179V19.1179ZM26.4375 19.1179C25.7625 19.1179 24.75 19.2299 24.75 18.5554C24.75 17.8809 25.7625 16.8749 26.4375 16.8749C27.1125 16.8749 27.5625 17.3235 27.5625 17.9962C27.5625 18.6688 27.1125 19.1179 26.4375 19.1179Z" fill="white"/>
</g>
<defs>
<clipPath id="clip0">
<rect width="30" height="24" fill="white"/>
</clipPath>
</defs>
</svg>
