<svg width="31" height="32" viewBox="0 0 31 32" fill="none" xmlns="http://www.w3.org/2000/svg">
<path d="M28.1634 17.9292C27.3757 24.4338 22.7307 24.8399 21.8699 25.1241C21.5044 25.2459 18.1181 26.1067 13.8548 25.8225L9.2423 30.9385L9.23418 25.0429L9.2017 25.0348C2.99755 23.2726 3.20868 16.6543 3.27365 13.1868C3.34673 9.71928 3.98014 6.86894 5.87225 4.96059C9.26667 1.80979 16.2748 2.28079 16.2748 2.28079C22.1866 2.30515 25.0207 4.13229 25.6784 4.74134C27.8629 6.64968 28.9754 11.2297 28.1634 17.9292ZM27.2944 3.11721C26.5149 2.38636 23.3803 0.0557364 16.3885 0.0232539C16.3885 0.0232539 8.14602 -0.488345 4.12631 3.28774C1.89314 5.57776 1.10544 8.93158 1.01611 13.0893C0.934908 17.2471 0.82934 25.0348 8.16226 27.1461H8.17038V30.37C8.17038 30.37 8.12166 31.6774 8.9662 31.9373C9.98128 32.2621 10.5741 31.2714 11.5486 30.1995C12.0845 29.6148 12.8154 28.754 13.3676 28.0962C18.3861 28.5266 22.2434 27.5359 22.6738 27.3979C23.6889 27.0568 29.4139 26.3097 30.3478 18.522C31.2979 10.4826 29.8687 5.40723 27.2944 3.11721Z" fill="#834995"/>
<path d="M22.82 18.9037C22.82 18.9037 21.878 18.0998 21.4232 17.7587C20.9928 17.4339 20.3026 16.9954 19.9209 16.7761C19.2307 16.3863 18.5242 16.63 18.2318 17.0198L17.6228 17.7993C17.3142 18.1972 16.8351 18.1242 16.7133 18.0998C15.82 17.8724 14.8699 17.3202 13.8954 16.3782C12.9128 15.4281 12.3119 14.4374 12.1008 13.4061L12.0845 13.3411C12.0277 12.9188 12.1008 12.7239 12.2713 12.4316L12.3038 12.4072C12.7098 12.0256 13.4731 11.5627 13.5706 11.1242C13.8711 10.3608 12.5718 8.76108 12.3931 8.48498C12.3931 8.48498 11.4511 7.24253 11.1182 6.99891C10.7609 6.69844 10.2005 6.52791 9.63209 6.8771L9.59961 6.90146C7.97549 7.99774 7.3908 8.63115 7.55322 9.56502L7.63442 9.94669C8.4546 12.5372 10.0462 15.2982 12.4093 17.7587C14.7481 20.1868 17.2817 21.6404 19.7747 22.6473C20.4244 22.8666 21.0984 22.6798 21.7887 22.087L21.7968 22.0789C22.3246 21.5835 22.7469 21.0557 23.0555 20.4873V20.4791C23.3722 19.8539 23.2666 19.2854 22.82 18.9037Z" fill="#834995"/>
<path d="M18.9383 13.2274C18.8409 13.2274 18.7597 13.1461 18.7516 13.0487C18.7191 12.3747 18.5404 11.8631 18.2156 11.522C17.8908 11.181 17.4116 10.9942 16.7782 10.9536C16.6727 10.9455 16.5996 10.8561 16.5996 10.7506C16.6077 10.645 16.6889 10.5638 16.7945 10.5719C17.5253 10.6125 18.0857 10.8399 18.4754 11.254C18.8652 11.6682 19.0845 12.261 19.117 13.0325C19.1251 13.138 19.0439 13.2274 18.9383 13.2355" fill="#834995"/>
<path d="M20.7817 13.8607C20.6761 13.8607 20.5949 13.7714 20.5949 13.6659C20.6274 12.3747 20.2457 11.2865 19.4743 10.4257C19.0926 9.99533 18.6216 9.65426 18.0857 9.41877C17.5497 9.17515 16.9163 9.02898 16.226 8.98025C16.1205 8.97213 16.0474 8.88281 16.0555 8.77724C16.0636 8.67167 16.1529 8.59046 16.2585 8.59858C17.7446 8.71227 18.9221 9.24011 19.7585 10.174C20.5949 11.1079 21.0091 12.2935 20.9766 13.6821C20.9685 13.7795 20.8873 13.8607 20.7817 13.8607Z" fill="#834995"/>
<path d="M22.6738 14.6241C22.5682 14.6241 22.487 14.5429 22.487 14.4373C22.4789 13.3004 22.3084 12.2691 21.9754 11.3758C21.6425 10.4907 21.1471 9.71112 20.4975 9.05335C19.8478 8.4037 19.1007 7.90834 18.2968 7.57539C17.4847 7.24245 16.5833 7.07192 15.6089 7.07192C15.5033 7.07192 15.4221 6.98259 15.4221 6.87702C15.4221 6.77145 15.5033 6.69025 15.6089 6.69025C17.6553 6.70649 19.385 7.40486 20.7573 8.77725C21.4476 9.4675 21.9754 10.2958 22.3246 11.2378C22.6738 12.1717 22.8525 13.2517 22.8606 14.4373C22.8606 14.5348 22.7794 14.616 22.6738 14.6241Z" fill="#834995"/>
</svg>
