<svg width="32" height="32" viewBox="0 0 32 32" fill="none" xmlns="http://www.w3.org/2000/svg">
<path d="M27.3358 4.65026C24.3276 1.65324 20.3276 0.00182855 16.0659 0C7.28398 0 0.137275 7.113 0.133759 15.8559C0.132736 18.6506 0.86618 21.3786 2.26026 23.7833L0 32L8.44581 29.7951C10.7728 31.0586 13.3928 31.7244 16.059 31.7255H16.0658H16.0659C24.8464 31.7255 31.9942 24.6112 31.9979 15.8687C31.9994 11.6315 30.3436 7.64748 27.3358 4.65026ZM16.0659 29.0473H16.0607C13.6842 29.0461 11.3537 28.4109 9.32088 27.2099L8.83711 26.9244L3.8252 28.2327L5.16331 23.3694L4.84812 22.8708C3.52247 20.7722 2.82263 18.3471 2.82363 15.8569C2.82654 8.5901 8.76661 2.67822 16.0709 2.67822C19.608 2.67968 22.9325 4.05235 25.4328 6.54338C27.933 9.03438 29.3088 12.3458 29.3078 15.8676C29.3047 23.1347 23.3644 29.0473 16.0659 29.0473Z" fill="#E0E0E0"/>
<path d="M0.731136 31.0883L2.88815 23.247C1.55741 20.9521 0.857601 18.3485 0.858441 15.682C0.86193 7.3386 7.68224 0.55072 16.0623 0.55072C20.1295 0.552549 23.9469 2.12844 26.817 4.98863C29.6877 7.84879 31.2677 11.6506 31.2661 15.6938C31.2626 24.0373 24.4419 30.8258 16.0629 30.8258C16.0623 30.8258 16.0633 30.8258 16.0629 30.8258H16.0561C13.5117 30.825 11.0115 30.1891 8.79099 28.9842L0.731136 31.0883Z" fill="url(#paint0_linear)"/>
<path fill-rule="evenodd" clip-rule="evenodd" d="M12.1287 9.1243C11.8339 8.47185 11.5236 8.45879 11.2432 8.44737C11.0138 8.43758 10.7512 8.43818 10.489 8.43818C10.2267 8.43818 9.8003 8.53635 9.43974 8.92839C9.07897 9.32043 8.06227 10.2682 8.06227 12.1957C8.06227 14.1234 9.47254 15.986 9.66911 16.2477C9.86589 16.5089 12.3915 20.5909 16.3912 22.1613C19.7154 23.4663 20.3919 23.2067 21.1134 23.1414C21.8349 23.0761 23.4416 22.1939 23.7695 21.279C24.0975 20.3643 24.0975 19.5803 23.9991 19.4164C23.9007 19.2531 23.6383 19.1552 23.2448 18.9592C22.8512 18.7633 20.9166 17.8154 20.5558 17.6848C20.1951 17.5542 19.9327 17.4889 19.6703 17.8811C19.408 18.2729 18.6542 19.1552 18.4246 19.4164C18.1951 19.6782 17.9655 19.7108 17.5719 19.5149C17.1784 19.3184 15.911 18.9051 14.4074 17.5705C13.2376 16.5321 12.4478 15.2497 12.2182 14.8574C11.9887 14.4656 12.1936 14.2534 12.391 14.0581C12.5677 13.8825 12.7846 13.6007 12.9814 13.3719C13.1777 13.1432 13.2433 12.9799 13.3745 12.7187C13.5057 12.457 13.4401 12.2283 13.3417 12.0324C13.2433 11.8365 12.4786 9.89898 12.1287 9.1243Z" fill="white"/>
<path d="M27.2053 4.59988C24.2317 1.63727 20.2776 0.00484539 16.0649 0.00299072C7.38375 0.00299072 0.319107 7.03432 0.315617 15.6768C0.314594 18.4395 1.03961 21.1362 2.41768 23.5133L0.183407 31.6356L8.53225 29.456C10.8325 30.705 13.4225 31.3631 16.0581 31.3642H16.0648H16.0649C24.7445 31.3642 31.8102 24.3316 31.8139 15.6895C31.8153 11.501 30.1786 7.56269 27.2053 4.59988ZM16.0649 28.7169H16.0597C13.7105 28.7157 11.4067 28.0877 9.39727 26.9006L8.91904 26.6183L3.96467 27.9116L5.28741 23.1041L4.97584 22.6113C3.66541 20.5368 2.9736 18.1395 2.97463 15.6779C2.97749 8.49452 8.84935 2.65052 16.0698 2.65052C19.5664 2.65195 22.8526 4.00886 25.3242 6.47129C27.7957 8.93371 29.1557 12.2071 29.1547 15.6885C29.1516 22.8721 23.2795 28.7169 16.0649 28.7169Z" fill="white"/>
<defs>
<linearGradient id="paint0_linear" x1="15.9986" y1="31.0883" x2="15.9986" y2="0.550771" gradientUnits="userSpaceOnUse">
<stop stop-color="#20B038"/>
<stop offset="1" stop-color="#60D66A"/>
</linearGradient>
</defs>
</svg>
